<?xml version="1.0" encoding="utf-8"?>
<!-- Generator: Adobe Illustrator 24.0.1, SVG Export Plug-In . SVG Version: 6.00 Build 0)  -->
<svg version="1.1" id="Layer_1" xmlns="http://www.w3.org/2000/svg" xmlns:xlink="http://www.w3.org/1999/xlink" x="0px" y="0px"
	 viewBox="0 0 14 14" style="enable-background:new 0 0 14 14;" xml:space="preserve">
<style type="text/css">
	.st0{fill-rule:evenodd;clip-rule:evenodd;fill:#17A4EA;}
</style>
<title>Home-icon</title>
<desc>Created with Sketch.</desc>
<g id="FunderMaps">
	<g id="Alle-rapporten" transform="translate(-30.000000, -138.000000)">
		<g id="Screen-Structure">
			<g id="Left-Navigation-White" transform="translate(0.000000, 70.000000)">
				<g id="Menu" transform="translate(0.000000, 15.000000)">
					<g id="Menu-Items">
						<path id="Home-icon" class="st0" d="M38,53.1l6,5c-0.1,0,0,0.3,0,1v7c0,0.6-0.4,1-1,1h-3c-0.5-0.1-0.9-0.5-1-1v-3
							c0.2-1-0.3-1.4-1-1h-2c-0.7-0.4-1.2,0-1,1v3c-0.1,0.5-0.5,0.9-1,1h-3c-0.6,0-1-0.4-1-1v-7c0-0.7,0.1-1,0-1l6-5
							C36.7,53,37.3,53,38,53.1"/>
					</g>
				</g>
			</g>
		</g>
	</g>
</g>
</svg>
