<?xml version="1.0" encoding="utf-8"?>
<!-- Generator: Adobe Illustrator 24.0.1, SVG Export Plug-In . SVG Version: 6.00 Build 0)  -->
<svg version="1.1" id="Layer_1" xmlns="http://www.w3.org/2000/svg" xmlns:xlink="http://www.w3.org/1999/xlink" x="0px" y="0px"
	 viewBox="0 0 16 17" style="enable-background:new 0 0 16 17;" xml:space="preserve">
<style type="text/css">
	.st0{fill:#17A4EA;}
	.st1{fill:none;}
</style>
<title>Map-icon</title>
<desc>Created with Sketch.</desc>
<g id="Filled_Icons_1_">
	<g id="Group">
		<path id="Path" class="st0" d="M0.2,0.4C0.1,0.4,0,0.5,0,0.7v10.7c0,0.1,0.1,0.2,0.1,0.3l4.5,3.2V3.4l-4.1-3
			C0.4,0.3,0.3,0.3,0.2,0.4z"/>
		<path id="Path_1_" class="st0" d="M13,7.7c0.6,0,1.2,0.1,1.7,0.4c0,0,0,0,0-0.1V4c0-0.1-0.1-0.2-0.1-0.3L10,0.5v8.7
			C10.7,8.3,11.8,7.7,13,7.7z"/>
		<polygon id="Path_2_" class="st0" points="5.3,14.8 9.3,12 9.3,0.5 5.3,3.4 		"/>
		<path id="Shape" class="st0" d="M13,8.3c-1.7,0-3,1.3-3,3c0,1.3,1.9,3.9,2.7,4.9l0,0c0.1,0.1,0.2,0.1,0.3,0.1s0.2,0,0.3-0.1
			c0.9-1,2.7-3.5,2.7-4.9C16,9.7,14.7,8.3,13,8.3z M13,12.7c-0.7,0-1.3-0.6-1.3-1.3c0-0.7,0.6-1.3,1.3-1.3c0.7,0,1.3,0.6,1.3,1.3
			C14.3,12.1,13.7,12.7,13,12.7z"/>
	</g>
</g>
<g id="invisible_shape">
	<rect id="Rectangle" y="0.3" class="st1" width="16" height="16"/>
</g>
</svg>
