<svg id="Layer_1" data-name="Layer 1" xmlns="http://www.w3.org/2000/svg" viewBox="0 0 16.02 16"><defs><style>.cls-1{fill:#17a4ea;}.cls-2{fill:none;}</style></defs><title>Tools-icon-active</title><g id="Filled_Icons" data-name="Filled Icons"><g id="Group"><g id="Path"><path class="cls-1" d="M4.27,6.53l2.4,2.39L8.55,7,6.15,4.63a3,3,0,0,0-4-3.72.37.37,0,0,0-.2.24.34.34,0,0,0,.08.29L3.23,2.75v.88H2.36L1.08,2.44a.36.36,0,0,0-.3-.08.32.32,0,0,0-.23.19,3,3,0,0,0,.64,3.27A3,3,0,0,0,4.27,6.53Z" transform="translate(-0.31 -0.67)"/><path class="cls-1" d="M12.26,10.74,10,8.45,8.08,10.34l2.29,2.28a3,3,0,0,0,2.84,4,2.92,2.92,0,0,0,1.17-.24.33.33,0,0,0,.2-.24.33.33,0,0,0-.09-.3l-1.26-1.31v-.86h.87l1.34,1.23a.33.33,0,0,0,.3.09.35.35,0,0,0,.23-.2,3,3,0,0,0-3.71-4Z" transform="translate(-0.31 -0.67)"/></g><path id="Path-2" data-name="Path" class="cls-1" d="M16.24,1.77l-1-1a.34.34,0,0,0-.43,0L12.45,2.37a.35.35,0,0,0-.14.24.33.33,0,0,0,.09.27L13,3.5,6.38,10.15,5.2,9a.33.33,0,1,0-.47.47l.47.48L1.06,14.06a1.34,1.34,0,0,0,0,1.89,1.33,1.33,0,0,0,1.88,0L7.09,11.8l.47.47a.3.3,0,0,0,.23.1.33.33,0,0,0,.24-.1.33.33,0,0,0,0-.47L6.85,10.62,13.5,4l.55.55a.37.37,0,0,0,.24.1h0a.35.35,0,0,0,.25-.14L16.27,2.2A.33.33,0,0,0,16.24,1.77Z" transform="translate(-0.31 -0.67)"/></g></g><g id="invisible_shape" data-name="invisible shape"><rect id="Rectangle" class="cls-2" x="0.02" width="16" height="16"/></g></svg>